:SAMPLES-PER-SECOND 30
:FULLY-SPECIFIED
:DEGREES
220
root  34.91723669 36.56232338 -14.18990939 11.03083134 -0.8896002173 4.528024673
lowerback  -8.453040123 1.94129014 1.002310038
upperback  -4.187749863 2.046610117 -4.859690189
thorax  0.6112179756 0.7424150109 -5.435249805
lowerneck  -11.54119968 -9.325519562 -5.166009903
upperneck  11.78339958 -13.13080025 7.748809814
head  6.328420162 -6.164070129 2.03034997
lclavicle  0 -4.497500157e-015 -2.743230041e-014
lhumerus  -47.83140182 29.80669975 61.10649872
lradius  0.01805307716 -6.507048965e-006 28.54030037
lwrist  3.192251654e-007 -3.790274832e-007 -30.47449875
lhand  -4.437294816e-031 -37.27069855 -10.64210033
lfingers  90 7.125020027 -90
lthumb  94.98254316 -25.46518956 101.4622172
rclavicle  0 -4.497500157e-015 -2.743230041e-014
rhumerus  56.22460175 -21.85440063 -48.28649902
rradius  -5.16745672e-007 2.214343908e-008 37.38710022
rwrist  0.0006954420824 -0.004670973402 -156.6139984
rhand  -1.770691619e-031 4.36206007 -7.483320236
rfingers  -90 -7.125020027 -90
rthumb  -85.05548036 -8.571896007 -59.86791121
rfemur  -12.58623314 13.6600256 11.89467621
rtibia  -0.9408154488 -1.347321987 19.58831024
rfoot  0.3001904786 -21.23735046 -37.37373734
rtoes  3.864866905 19.63803791 -101.3659461
lfemur  -5.960437775 -17.3848896 -22.67234802
ltibia  6.474648476 0.3098300099 8.2258358
lfoot  0.80210042 -23.29790688 34.48762894
ltoes  -8.66697179 -18.09423329 -116.1415916
221
root  34.91702643 36.5629031 -14.18599106 11.04708481 -0.9225689173 4.529746056
lowerback  -8.43185997 1.922020078 1.000359893
upperback  -4.190040112 2.021850109 -4.836359978
thorax  0.5938000083 0.7305830121 -5.412220001
lowerneck  -11.5447998 -9.308520317 -5.201610088
upperneck  11.77929974 -13.10370064 7.767849922
head  6.329659939 -6.150909901 2.044470072
lclavicle  0 -4.497500157e-015 -2.743230041e-014
lhumerus  -47.90280151 29.8125 61.11130142
lradius  0.01822019182 -6.507048965e-006 28.5862999
lwrist  3.192251654e-007 -3.790274832e-007 -30.45890045
lhand  -0 -37.25329971 -10.63650036
lfingers  90 7.125020027 -90
lthumb  94.97321377 -25.46036688 101.4431855
rclavicle  0 -4.497500157e-015 -2.743230041e-014
rhumerus  56.24570465 -21.84090042 -48.40510178
rradius  -5.16745672e-007 2.214343908e-008 37.3832016
rwrist  0.0006954420824 -0.004670973402 -156.802002
rhand  -1.770786731e-031 4.402219772 -7.467299938
rfingers  -90 -7.125020027 -90
rthumb  -85.03814071 -8.588304392 -59.8275929
rfemur  -12.59181023 13.65293407 11.87705898
rtibia  -0.9278625846 -1.385599852 19.57223892
rfoot  0.293389827 -21.32650566 -37.36292648
rtoes  3.836736516 19.64334348 -101.2822547
lfemur  -5.979475498 -17.38768196 -22.67391586
ltibia  6.46904707 0.3110513091 8.237392426
lfoot  0.8072296977 -23.3083992 34.50568771
ltoes  -8.663999644 -18.09561957 -116.1320223
222
root  34.91710453 36.5627439 -14.1825308 11.03988361 -0.959920764 4.51787281
lowerback  -8.430279732 1.909369946 0.9973016977
upperback  -4.198339939 2.004290104 -4.822740078
thorax  0.5819810033 0.7214630246 -5.39786005
lowerneck  -11.56029987 -9.299460411 -5.225379944
upperneck  11.80049992 -13.08909988 7.771379948
head  6.336377144 -6.143123627 2.052591324
lclavicle  0 -4.497500157e-015 -2.743230041e-014
lhumerus  -47.94060135 29.83329964 61.10609818
lradius  0.01837291941 -6.507048965e-006 28.58539963
lwrist  3.192251654e-007 -3.790274832e-007 -30.46139908
lhand  -0 -37.23020172 -10.63659954
lfingers  90 7.125020027 -90
lthumb  94.96241608 -25.46131841 101.4184844
rclavicle  0 -4.497500157e-015 -2.743230041e-014
rhumerus  56.23479462 -21.82639885 -48.39970016
rradius  -5.16745672e-007 2.214343908e-008 37.41830063
rwrist  0.0006954420824 -0.004670973402 -156.9810028
rhand  -1.770724771e-031 4.376100063 -7.50936985
rfingers  -90 -7.125020027 -90
rthumb  -85.06550427 -8.550245295 -59.8562009
rfemur  -12.56832504 13.61329174 11.87553024
rtibia  -0.9078565836 -1.397185445 19.53699493
rfoot  0.3251190186 -21.35961151 -37.27574539
rtoes  3.83755572 19.64318954 -101.2846916
lfemur  -6.007060528 -17.37098885 -22.6612854
ltibia  6.436742783 0.2991390824 8.313448906
lfoot  0.8075253963 -23.32049942 34.49399185
ltoes  -8.65149572 -18.10144517 -116.0917717
223
root  34.91685522 36.56326054 -14.17787206 11.04648399 -1.011805177 4.511766911
lowerback  -8.395210266 1.221809864 1.132669806
upperback  -4.269989967 2.1536901 -4.791419983
thorax  0.4986790121 1.255959988 -5.426229954
lowerneck  -11.54349995 -9.289190292 -5.20152998
upperneck  11.7876997 -13.07940006 7.769239902
head  6.330599785 -6.139249802 2.043439865
lclavicle  0 -4.497500157e-015 -2.743230041e-014
lhumerus  -47.93809891 29.76060104 61.11489868
lradius  0.01851103641 -6.507048965e-006 28.54380035
lwrist  3.192251654e-007 -3.790274832e-007 -30.44485092
lhand  -4.433634775e-031 -37.20849991 -10.68550014
lfingers  90 7.125020027 -90
lthumb  94.96296558 -25.50998002 101.3999255
rclavicle  0 -4.497500157e-015 -2.743230041e-014
rhumerus  56.27929687 -21.84619904 -48.66279984
rradius  -5.16745672e-007 2.214343908e-008 37.45569992
rwrist  0.0006954420824 -0.004670973402 -156.8159943
rhand  -1.770893344e-031 4.446800232 -7.493040085
rfingers  -90 -7.125020027 -90
rthumb  -85.04094474 -8.56897586 -59.7860468
rfemur  -12.57029247 13.60406113 11.86911201
rtibia  -0.8982776999 -1.386934161 19.51662254
rfoot  0.3578502536 -21.32909966 -37.20075989
rtoes  3.84485621 19.6418162 -101.3064096
lfemur  -5.99886179 -17.35112572 -22.6643486
ltibia  6.441578388 0.2834095657 8.304998398
lfoot  0.8059287667 -23.28290367 34.49883652
ltoes  -8.647520468 -18.10329503 -116.0789779
